<svg xmlns="http://www.w3.org/2000/svg" viewBox="0 0 260 260" preserveAspectRatio="xMidYMid">
  <path d="M20 20 L240 20 L220 240 L130 250 L40 240 Z" fill="#1572B6"/>
  <path d="M130 30 L130 240 L210 230 Z" fill="#33A9DC"/>
  <path d="M70 80 L90 80 L90 100 L110 100 L110 80 L130 80 L130 120 L70 120 Z" fill="#FFFFFF"/>
  <path d="M140 80 L180 80 L180 100 L160 100 L160 120 L140 120 Z" fill="#FFFFFF"/>
  <path d="M70 140 L190 140 L190 160 L70 160 Z" fill="#FFFFFF"/>
  <path d="M70 180 L190 180 L190 200 L70 200 Z" fill="#FFFFFF"/>
</svg>