<svg xmlns="http://www.w3.org/2000/svg" viewBox="0 0 260 260" preserveAspectRatio="xMidYMid">
  <path d="M20 20 L240 20 L220 240 L130 250 L40 240 Z" fill="#E44D26"/>
  <path d="M130 30 L130 240 L210 230 Z" fill="#F16529"/>
  <path d="M60 80 L80 80 L80 100 L100 100 L100 80 L120 80 L120 120 L60 120 Z" fill="#FFFFFF"/>
  <path d="M130 80 L150 80 L150 100 L130 100 Z" fill="#FFFFFF"/>
  <path d="M160 80 L180 80 L180 100 L160 100 Z" fill="#FFFFFF"/>
  <path d="M60 140 L200 140 L200 160 L60 160 Z" fill="#FFFFFF"/>
  <path d="M60 180 L200 180 L200 200 L60 200 Z" fill="#FFFFFF"/>
</svg>